<svg xmlns="http://www.w3.org/2000/svg" viewBox="0 0 400 300" fill="none">
  <rect width="400" height="300" fill="#FAF6F0"/>
  <path d="M170 200 L175 100 L225 100 L230 200 Z" fill="#E8DDD0"/>
  <path d="M170 200 L175 100 L225 100 L230 200 Z" stroke="#D4C4B4" stroke-width="2" fill="none"/>
  <rect x="177" y="105" width="46" height="90" rx="2" fill="#C4884A" opacity="0.3"/>
  <circle cx="190" cy="130" r="4" fill="#4A6741" opacity="0.4"/>
  <circle cx="210" cy="145" r="3" fill="#C4884A" opacity="0.5"/>
  <circle cx="195" cy="160" r="5" fill="#4A6741" opacity="0.3"/>
  <path d="M175 100 Q200 90 225 100" fill="#D4C4B4"/>
  <ellipse cx="200" cy="93" rx="30" ry="5" fill="#E8DDD0"/>
  <rect x="196" y="70" width="8" height="25" rx="4" fill="#C4884A" opacity="0.5"/>
  <circle cx="200" cy="68" r="6" fill="#4A6741" opacity="0.5"/>
  <circle cx="193" cy="72" r="3" fill="#C4884A" opacity="0.4"/>
  <line x1="198" y1="200" x2="198" y2="215" stroke="#D4C4B4" stroke-width="6"/>
  <ellipse cx="200" cy="220" rx="25" ry="6" fill="#D4C4B4"/>
  <text x="200" y="260" text-anchor="middle" font-family="Georgia, serif" font-size="18" fill="#4A6741">Drinks</text>
</svg>
